# xmcd
#
# Track frame offsets:
#	150
#	20629
#	38848
#	65753
#	83111
#	102157
#	118350
#	135335
#	153228
#	169834
#
# Disc length: 2521 seconds
#
# Revision: 0
# Processed by: cddbd v1.5.2PL0 Copyright (c) Steve Scherf et al.
# Submitted via: EasyCDDAExtractor 12.0.1.1
#
DISCID=8109d70a
DTITLE=Karla Davis - Here I Am
DYEAR=2010
DGENRE=Country
TTITLE0=Rocking Chair
TTITLE1=Whiskey's Got A Job To Do
TTITLE2=Why
TTITLE3=Keep Movin' On
TTITLE4=Here I Am
TTITLE5=Dare To Dance Alone
TTITLE6=Get Back To You
TTITLE7=Until Then
TTITLE8=I Guess This Is Love
TTITLE9=Loving You
EXTD=
EXTT0=
EXTT1=
EXTT2=
EXTT3=
EXTT4=
EXTT5=
EXTT6=
EXTT7=
EXTT8=
EXTT9=
PLAYORDER=
